<?xml version="1.0" encoding="utf-8"?>
<!-- Generator: Adobe Illustrator 21.0.0, SVG Export Plug-In . SVG Version: 6.00 Build 0)  -->
<!DOCTYPE svg PUBLIC "-//W3C//DTD SVG 1.1//EN" "http://www.w3.org/Graphics/SVG/1.1/DTD/svg11.dtd">
<svg version="1.1" id="Layer_1" xmlns="http://www.w3.org/2000/svg" xmlns:xlink="http://www.w3.org/1999/xlink" x="0px" y="0px"
	 viewBox="0 0 46.8 46.9" style="enable-background:new 0 0 46.8 46.9;" xml:space="preserve">
<style type="text/css">
	.st0{fill:none;}
	.st1{fill:#43484D;}
</style>
<g>
	<polygon class="st0" points="30.9,10.3 18.6,22.6 17.6,29.3 24.3,28.2 36.5,15.9 	"/>
	<polygon class="st0" points="33.7,7.5 39.4,13.1 42,10.4 36.4,4.8 	"/>
	<path class="st1" d="M36,26.9c-1.1,0-2,0.9-2,2v14H4v-30h12c1.1,0,2-0.9,2-2s-0.9-2-2-2H2c-1.1,0-2,0.9-2,2v34c0,1.1,0.9,2,2,2h34
		c1.1,0,2-0.9,2-2v-16C38,27.8,37.1,26.9,36,26.9z"/>
	<path class="st1" d="M46.2,9l-8.5-8.4c-0.8-0.8-2-0.8-2.8,0L15.3,20.3c-0.3,0.3-0.5,0.7-0.6,1.1l-1.6,10c-0.1,0.6,0.1,1.3,0.6,1.7
		c0.4,0.4,0.9,0.6,1.4,0.6c0.1,0,0.2,0,0.3,0l10-1.6c0.4-0.1,0.8-0.3,1.1-0.6l19.6-19.7c0.4-0.4,0.6-0.9,0.6-1.4S46.6,9.4,46.2,9z
		 M24.3,28.2l-6.7,1.1l1-6.7l12.3-12.3l5.6,5.6L24.3,28.2z M39.4,13.1l-5.6-5.6l2.6-2.6l5.6,5.6L39.4,13.1z"/>
</g>
</svg>
