<?xml version="1.0" encoding="utf-8"?>
<!-- Generator: Adobe Illustrator 21.0.0, SVG Export Plug-In . SVG Version: 6.00 Build 0)  -->
<!DOCTYPE svg PUBLIC "-//W3C//DTD SVG 1.1//EN" "http://www.w3.org/Graphics/SVG/1.1/DTD/svg11.dtd">
<svg version="1.1" id="Layer_1" xmlns="http://www.w3.org/2000/svg" xmlns:xlink="http://www.w3.org/1999/xlink" x="0px" y="0px"
	 viewBox="0 0 42 42" style="enable-background:new 0 0 42 42;" xml:space="preserve">
<style type="text/css">
	.st0{fill:none;}
	.st1{fill:#43484D;}
</style>
<g>
	<path class="st0" d="M38,14V8h-5v2c0,1.1-0.9,2-2,2s-2-0.9-2-2V8H13v2c0,1.1-0.9,2-2,2s-2-0.9-2-2V8H4v6H38z"/>
	<path class="st0" d="M4,18v20h34V18H4z M30.7,23.9l-10.6,10c-0.4,0.4-0.9,0.5-1.4,0.5c-0.5,0-1-0.2-1.4-0.6l-5.4-5.5
		c-0.8-0.8-0.8-2.1,0-2.8c0.8-0.8,2.1-0.8,2.8,0l4,4.1l9.2-8.7c0.8-0.8,2.1-0.7,2.8,0.1C31.5,21.8,31.5,23.1,30.7,23.9z"/>
	<path class="st1" d="M39,4h-6V2c0-1.1-0.9-2-2-2s-2,0.9-2,2v2H13V2c0-1.1-0.9-2-2-2S9,0.9,9,2v2H3C1.3,4,0,5.3,0,7v32
		c0,1.7,1.3,3,3,3h36c1.7,0,3-1.3,3-3V7C42,5.3,40.7,4,39,4z M9,8v2c0,1.1,0.9,2,2,2s2-0.9,2-2V8h16v2c0,1.1,0.9,2,2,2s2-0.9,2-2V8
		h5v6H4V8H9z M4,38V18h34v20H4z"/>
	<path class="st1" d="M27.9,21l-9.2,8.7l-4-4.1c-0.8-0.8-2-0.8-2.8,0c-0.8,0.8-0.8,2,0,2.8l5.4,5.5c0.4,0.4,0.9,0.6,1.4,0.6
		c0.5,0,1-0.2,1.4-0.5l10.6-10c0.8-0.8,0.8-2,0.1-2.8C30,20.2,28.7,20.2,27.9,21z"/>
</g>
</svg>
