<?xml version="1.0" encoding="utf-8"?>
<!-- Generator: Adobe Illustrator 21.0.0, SVG Export Plug-In . SVG Version: 6.00 Build 0)  -->
<!DOCTYPE svg PUBLIC "-//W3C//DTD SVG 1.1//EN" "http://www.w3.org/Graphics/SVG/1.1/DTD/svg11.dtd">
<svg version="1.1" id="Layer_1" xmlns="http://www.w3.org/2000/svg" xmlns:xlink="http://www.w3.org/1999/xlink" x="0px" y="0px"
	 viewBox="0 0 46 48" style="enable-background:new 0 0 46 48;" xml:space="preserve">
<style type="text/css">
	.st0{fill:#43484D;}
</style>
<g>
	<path class="st0" d="M32.6,31.8L23,43.1l-9.5-11.3c-0.7-0.8-2-1-2.8-0.2c-0.8,0.7-1,2-0.2,2.8l10.7,12.7c0.5,0.6,1.2,0.9,1.9,0.9
		c0.7,0,1.4-0.3,1.9-0.9l10.7-12.8c0.7-0.8,0.6-2.1-0.2-2.8C34.6,30.8,33.3,30.9,32.6,31.8z"/>
	<path class="st0" d="M33.4,0C29.2,0,25.3,2.1,23,5.4C20.7,2.1,16.8,0,12.6,0C5.7,0,0,5.6,0,12.5c0,0.9,0.1,1.7,0.3,2.5
		c0.4,1.7,1.1,3.3,2.1,4.7c0.6,0.9,1.9,1.1,2.8,0.4c0.9-0.6,1.1-1.9,0.4-2.8c-0.7-1-1.2-2-1.4-3.2C4.1,13.6,4,13,4,12.5
		C4,7.8,7.9,4,12.6,4c3.8,0,7.2,2.5,8.3,6.1c0.2,0.8,1,1.4,1.9,1.4l0.4,0c0.9,0,1.7-0.6,2-1.4C26.2,6.5,29.6,4,33.4,4
		c4.7,0,8.6,3.8,8.6,8.5c0,0.6-0.1,1.2-0.2,1.7c-0.2,1.2-0.7,2.3-1.5,3.3c-0.7,0.9-0.5,2.1,0.4,2.8c0.4,0.3,0.8,0.4,1.2,0.4
		c0.6,0,1.2-0.3,1.6-0.8c1.1-1.4,1.8-3.1,2.2-4.8c0.2-0.8,0.3-1.7,0.3-2.5C46,5.6,40.4,0,33.4,0z"/>
	<path class="st0" d="M43,24.5H26.8c-0.5,0-0.9,0.2-1.2,0.4l-3.7,3l-5.4-9.6c-0.3-0.6-1-1-1.7-1c-0.7,0-1.4,0.3-1.7,0.9l-4,5.9
		L2,24.2c-1.1,0-2,0.9-2,2c0,1.1,0.9,2,2,2l8.2-0.2c0.7,0,1.3-0.3,1.6-0.9l2.7-4.1l4.9,8.9c0.3,0.5,0.8,0.9,1.4,1c0.1,0,0.3,0,0.4,0
		c0.4,0,0.9-0.2,1.2-0.4l5-4H43c1.1,0,2-0.9,2-2S44.1,24.5,43,24.5z"/>
</g>
</svg>
