<?xml version="1.0" encoding="utf-8"?>
<!-- Generator: Adobe Illustrator 21.0.0, SVG Export Plug-In . SVG Version: 6.00 Build 0)  -->
<!DOCTYPE svg PUBLIC "-//W3C//DTD SVG 1.1//EN" "http://www.w3.org/Graphics/SVG/1.1/DTD/svg11.dtd">
<svg version="1.1" id="Layer_1" xmlns="http://www.w3.org/2000/svg" xmlns:xlink="http://www.w3.org/1999/xlink" x="0px" y="0px"
	 viewBox="0 0 66.3 64.7" style="enable-background:new 0 0 66.3 64.7;" xml:space="preserve">
<style type="text/css">
	.st0{fill-rule:evenodd;clip-rule:evenodd;}
</style>
<path class="st0" d="M33.2,8.8c2.3,0,4.3,1.9,4.3,4.3c0,2.3-1.9,4.3-4.3,4.3c-2.4,0-4.3-1.9-4.3-4.3C28.9,10.8,30.8,8.8,33.2,8.8
	L33.2,8.8z M28.5,18.7H38L48.2,5.4C48.6,5,51.6,5.3,49.6,8l-9.6,13l-2.3,15.7l11.8,20.4c1.2,2.1-1.7,3.2-2.7,1.6L35.6,39h-4.8
	c-3.8,6.6-7.5,13.2-11.2,19.7c-1,1.8-3.9,0.2-2.8-1.6l11.8-20.4L26.4,21L16.7,8c-1.9-2.5,0.9-3.2,1.5-2.6L28.5,18.7z"/>
</svg>
