<?xml version="1.0" encoding="utf-8"?>
<!-- Generator: Adobe Illustrator 21.0.0, SVG Export Plug-In . SVG Version: 6.00 Build 0)  -->
<!DOCTYPE svg PUBLIC "-//W3C//DTD SVG 1.1//EN" "http://www.w3.org/Graphics/SVG/1.1/DTD/svg11.dtd">
<svg version="1.1" id="Layer_1" xmlns="http://www.w3.org/2000/svg" xmlns:xlink="http://www.w3.org/1999/xlink" x="0px" y="0px"
	 viewBox="0 0 40 40.1" style="enable-background:new 0 0 40 40.1;" xml:space="preserve">
<style type="text/css">
	.st0{fill:none;}
	.st1{fill:#474747;}
</style>
<g>
	<polygon class="st0" points="20.9,11.9 6,26.8 4.5,35.5 13.2,34 28.1,19.1 	"/>
	<rect x="26.4" y="5.3" transform="matrix(0.7071 -0.7071 0.7071 0.7071 1.4113 24.0476)" class="st0" width="6.6" height="10.1"/>
	<path class="st1" d="M39.1,9.5l-8.6-8.6C29.9,0.3,29.2,0,28.4,0l0,0c-0.8,0-1.6,0.3-2.1,0.9l-6.8,6.8l0,0l0,0L2.7,24.5
		c-0.3,0.3-0.5,0.7-0.6,1.1L0,37.7c-0.1,0.6,0.1,1.3,0.6,1.8C1,39.9,1.5,40.1,2,40.1c0.1,0,0.2,0,0.3,0L14.4,38
		c0.4-0.1,0.8-0.3,1.1-0.6l23.6-23.6C40.3,12.5,40.3,10.6,39.1,9.5z M13.2,34l-8.7,1.5L6,26.8l14.9-14.9l7.2,7.2L13.2,34z
		 M30.9,16.2L23.7,9l4.7-4.7l7.2,7.2L30.9,16.2z"/>
</g>
</svg>
