<?xml version="1.0" encoding="utf-8"?>
<!-- Generator: Adobe Illustrator 21.0.0, SVG Export Plug-In . SVG Version: 6.00 Build 0)  -->
<!DOCTYPE svg PUBLIC "-//W3C//DTD SVG 1.1//EN" "http://www.w3.org/Graphics/SVG/1.1/DTD/svg11.dtd">
<svg version="1.1" id="Layer_1" xmlns="http://www.w3.org/2000/svg" xmlns:xlink="http://www.w3.org/1999/xlink" x="0px" y="0px"
	 viewBox="0 0 41.9 41.9" style="enable-background:new 0 0 41.9 41.9;" xml:space="preserve">
<style type="text/css">
	.st0{fill:none;}
	.st1{fill:#43484D;}
</style>
<g>
	<path class="st0" d="M21,3.9c-9.4,0-17,7.6-17,17c0,9.4,7.6,17,17,17s17-7.6,17-17C38,11.6,30.4,3.9,21,3.9z M29.2,23.5h-6v6
		c0,1.1-0.9,2-2,2s-2-0.9-2-2v-6h-6c-1.1,0-2-0.9-2-2s0.9-2,2-2h6V13c0-1.1,0.9-2,2-2s2,0.9,2,2v6.5h6c1.1,0,2,0.9,2,2
		S30.3,23.5,29.2,23.5z"/>
	<path class="st1" d="M21,0C9.4,0,0,9.4,0,21s9.4,21,21,21c11.6,0,21-9.4,21-21S32.5,0,21,0z M21,38c-9.4,0-17-7.6-17-17
		c0-9.4,7.6-17,17-17s17,7.6,17,17C38,30.4,30.4,38,21,38z"/>
	<path class="st1" d="M29.2,19.5h-6V13c0-1.1-0.9-2-2-2s-2,0.9-2,2v6.5h-6c-1.1,0-2,0.9-2,2s0.9,2,2,2h6v6c0,1.1,0.9,2,2,2
		s2-0.9,2-2v-6h6c1.1,0,2-0.9,2-2S30.3,19.5,29.2,19.5z"/>
</g>
</svg>
