<?xml version="1.0" encoding="utf-8"?>
<!-- Generator: Adobe Illustrator 21.0.0, SVG Export Plug-In . SVG Version: 6.00 Build 0)  -->
<!DOCTYPE svg PUBLIC "-//W3C//DTD SVG 1.1//EN" "http://www.w3.org/Graphics/SVG/1.1/DTD/svg11.dtd">
<svg version="1.1" id="Layer_1" xmlns="http://www.w3.org/2000/svg" xmlns:xlink="http://www.w3.org/1999/xlink" x="0px" y="0px"
	 viewBox="0 0 66.3 64.7" style="enable-background:new 0 0 66.3 64.7;" xml:space="preserve">
<path d="M11.7,5.2h43c1.5,0,3,0.6,4,1.7c1,1,1.6,2.4,1.6,3.9v43c0,1.6-0.6,3-1.6,4c-1,1-2.5,1.7-4,1.7h-43c-1.5,0-3-0.6-4-1.7
	c-1-1-1.7-2.4-1.7-4v-43c0-1.5,0.6-3,1.7-3.9C8.8,5.8,10.2,5.2,11.7,5.2L11.7,5.2z M47.2,24.8h-3.7v0.7h3.7V24.8z M44.7,18.5
	l-3.2,1.9l0.3,0.6l3.3-1.9L44.7,18.5z M39.8,13.9L38,17.1l0.6,0.4l1.9-3.2L39.8,13.9z M26.4,14.1l1.9,3.2l0.6-0.4l-1.8-3.2
	L26.4,14.1z M21.5,18.9l3.2,1.8l0.4-0.6l-3.2-1.8L21.5,18.9z M22.8,24.8h-3.7v0.7h3.7V24.8z M34,11.2c8.1,0.5,14.5,7.2,14.5,15.3
	H36.7c0-1-0.4-1.9-1-2.4c-0.6-0.6-1.4-1-2.4-1c-1,0-1.9,0.4-2.5,1c-0.6,0.6-1,1.4-1,2.4H18.8c-0.3,0-0.6,0.1-0.9,0.2v-0.2
	c0-8.1,6.4-14.8,14.4-15.3v7.6H34V11.2z M32.3,56.1v-19H34v19h20.7c0.6,0,1.2-0.2,1.6-0.6c0.4-0.5,0.7-1,0.7-1.7v-43
	c0-0.6-0.3-1.2-0.7-1.6c-0.4-0.4-1-0.7-1.6-0.7h-43c-0.6,0-1.2,0.3-1.7,0.7c-0.4,0.4-0.6,1-0.6,1.6v43c0,0.6,0.2,1.2,0.6,1.7
	c0.5,0.4,1,0.6,1.7,0.6H32.3z"/>
</svg>
