<?xml version="1.0" encoding="utf-8"?>
<!-- Generator: Adobe Illustrator 21.0.0, SVG Export Plug-In . SVG Version: 6.00 Build 0)  -->
<!DOCTYPE svg PUBLIC "-//W3C//DTD SVG 1.1//EN" "http://www.w3.org/Graphics/SVG/1.1/DTD/svg11.dtd">
<svg version="1.1" id="Layer_1" xmlns="http://www.w3.org/2000/svg" xmlns:xlink="http://www.w3.org/1999/xlink" x="0px" y="0px"
	 viewBox="0 0 66.3 64.7" style="enable-background:new 0 0 66.3 64.7;" xml:space="preserve">
<style type="text/css">
	.st0{fill-rule:evenodd;clip-rule:evenodd;}
</style>
<path class="st0" d="M8.8,16.6c1.5,0,2.7,1.2,2.7,2.7v19.1h43.4v-4.9c0-1.5,1.2-2.7,2.7-2.7c1.4,0,2.7,1.2,2.7,2.7v14.6h-5.4v-4.2
	H11.5v4.2H6V19.4C6,17.8,7.3,16.6,8.8,16.6L8.8,16.6z M25.8,33h23.2c1.9,0,3.5,1.6,3.5,3.5l0,0H22.3l0,0C22.3,34.6,23.9,33,25.8,33
	L25.8,33z M15.3,29.5h3.4c1,0,1.8,0.8,1.8,1.8v5.1h-7.1v-5.1C13.4,30.3,14.2,29.5,15.3,29.5L15.3,29.5z"/>
</svg>
