<?xml version="1.0" encoding="utf-8"?>
<!-- Generator: Adobe Illustrator 21.0.0, SVG Export Plug-In . SVG Version: 6.00 Build 0)  -->
<!DOCTYPE svg PUBLIC "-//W3C//DTD SVG 1.1//EN" "http://www.w3.org/Graphics/SVG/1.1/DTD/svg11.dtd">
<svg version="1.1" id="Layer_1" xmlns="http://www.w3.org/2000/svg" xmlns:xlink="http://www.w3.org/1999/xlink" x="0px" y="0px"
	 viewBox="0 0 47.9 42" style="enable-background:new 0 0 47.9 42;" xml:space="preserve">
<style type="text/css">
	.st0{fill:none;}
	.st1{fill:#43484D;}
</style>
<g>
	<path class="st0" d="M31.7,16c-0.7,0.3-1.5,0.2-2.1-0.3c-0.7-0.6-0.9-1.6-0.5-2.4c0.1-0.3,0.2-0.5,0.4-0.7c0.4-0.7,1.2-2.9-0.4-6.3
		c-0.5-1-1.2-2.2-2.3-2.3c-0.7-0.1-1.3,0.3-1.5,0.5c-0.2,0.7-0.2,3-0.1,5l0,0.6l-5.5,9.7L17,20.9v12.8c1.3,0.5,4.3,1.6,6.2,2.3H35h2
		h0.1c0.1,0,2.1,0,2.5-1.1c0.6-1.5,2.9-10.6,4.3-16.3c0-0.5-0.5-2.1-0.9-2.6H31.7z"/>
	<rect x="4" y="18" class="st0" width="9" height="20"/>
	<path class="st1" d="M46,13.4c-1-1.2-2-1.4-2.7-1.4h-9.5c0.3-1.8,0.3-4.3-1.2-7.4c-2-4.2-4.8-4.7-6.4-4.6c-2.1,0.1-4.2,1.5-4.8,3.1
		c-0.5,1.4-0.5,4.5-0.4,6.1l-4.2,7.4c-0.3-1.8-1.5-2.6-2.7-2.6H3.3C1.4,14,0,15.9,0,17.6v21.3C0,40.6,1.5,42,3.3,42h10.9
		c1.4,0,2.8-1,2.8-3.1V38c1.6,0.6,3.8,1.4,5.2,1.9l0.3,0.1H35h2h0.1c2.3,0,5.2-1,6.2-3.6c0.9-2.3,4.1-15.3,4.5-16.8
		C48.1,17.9,47.3,15,46,13.4z M13,38H4V18h9L13,38z M39.6,34.9C39.2,36,37.2,36,37.1,36H37h-2H23.2c-1.9-0.7-4.9-1.8-6.2-2.3V20.9
		l2.7-1.1l5.5-9.7l0-0.6c-0.1-2.1,0-4.3,0.1-5c0.2-0.2,0.8-0.6,1.5-0.5c1.1,0.1,1.9,1.3,2.3,2.3c1.6,3.4,0.8,5.6,0.4,6.3
		c-0.2,0.2-0.3,0.5-0.4,0.7c-0.4,0.8-0.2,1.8,0.5,2.4c0.6,0.5,1.4,0.6,2.1,0.3H43c0.5,0.6,1,2.2,0.9,2.6
		C42.5,24.3,40.2,33.4,39.6,34.9z"/>
</g>
</svg>
